<?xml version="1.0" encoding="utf-8"?>
<!-- Generator: Adobe Illustrator 26.0.2, SVG Export Plug-In . SVG Version: 6.00 Build 0)  -->
<svg version="1.1" xmlns="http://www.w3.org/2000/svg" xmlns:xlink="http://www.w3.org/1999/xlink" x="0px" y="0px"
	 viewBox="0 0 140 40" enable-background="new 0 0 140 40" xml:space="preserve">
<g id="guides" display="none">
</g>
<g id="images">
</g>
<g id="Layer_5">
	<path fill="#0973AE" d="M0.2823,12.7701c0.962,0.1603,1.6033,0.8818,2.4451,1.2827c0.2004,0.1202,0.4409,0.2405,0.6012,0.4008
		c0.3607,0.2806,0.6413,0.2004,0.9219-0.0802c1.0822-1.0822,2.3649-1.6835,3.8079-2.1645c1.6835-0.5211,3.2868-0.5211,5.0104-0.0802
		c1.6033,0.4008,2.9661,1.2025,4.2087,2.2046c0.4409,0.3607,0.6814,0.3207,1.1223,0c0.8818-0.6413,1.8037-1.2827,2.8058-1.7637
		c0.1202-0.0802,0.2405-0.1202,0.3207,0c0.0802,0.0802,0.1202,0.2405,0.0802,0.3607c-0.4409,1.8438-0.8818,3.6476-1.4029,5.4914
		c-0.1202,0.4008-0.2004,0.7616-0.1202,1.1223c0.7215,2.8459-0.0401,5.4112-1.6835,7.6558
		c-1.3227,1.8438-3.1666,3.0463-5.4513,3.5273c-2.886,0.6413-5.5715,0.2004-7.9765-1.5632
		c-1.4831-1.0822-2.5653-2.405-3.2066-4.1686c-0.5211-1.3227-0.7616-2.6856-0.7215-4.0885c0-0.8417,0.5612-1.6835,0.2004-2.5252
		c-0.3207-0.7215-0.3607-1.5232-0.7215-2.2446c-0.1202-0.2405,0.2004-0.6413-0.2806-0.7616
		C0.2823,14.5337,0.2823,13.6519,0.2823,12.7701z"/>
	<path fill="#FFFFFF" d="M34.7165,21.83c-0.3197-0.3197-0.7632-0.5672-0.9695-1.1241c1.4852-0.8045,1.4852-2.2071,1.4026-3.6097
		c-0.0309-0.557-0.196-1.0829-0.5157-1.5161c-0.887-1.1654-2.0421-1.8049-3.5272-1.7636h-5.8169V29.163
		c2.1246,0,4.2079,0.0825,6.2191,0c0.7219-0.0413,1.4852-0.3198,2.1658-0.6807C35.8407,27.3581,36.7586,23.7896,34.7165,21.83z
		 M27.8993,15.8997c1.0416,0,2.0421-0.0412,3.0837,0c1.0829,0.0413,1.8461,0.9179,1.8461,2.0421
		c0,1.1241-0.722,2.0421-1.8049,2.0833c-1.0417,0.0825-2.0834,0.0413-3.125,0.0413V15.8997z M32.1485,26.6362
		c-0.2373,0.1238-0.4848,0.2063-0.722,0.2063h-3.5272v-4.6927c1.1654,0,2.2071-0.0412,3.29,0
		c0.9592,0.0413,2.0008,0.8457,2.1246,1.6399C33.5511,25.151,33.1489,26.0792,32.1485,26.6362z"/>
	<path fill="#FFFFFF" d="M48.422,13.8924c0,3.2868,0,6.4534,0,9.66c0,0.4008-0.0401,0.8417,0.1203,1.2827
		c0.4409,1.1624,1.2426,1.8839,2.4451,2.1645c1.4831,0.3207,2.8058,0.1202,3.8881-1.0021c0.6012-0.6413,0.8017-1.3628,0.8017-2.2046
		c0-2.8459,0-5.7319,0-8.5778c0-0.4409,0-0.8417,0-1.3227c0.8818,0,1.6835,0,2.5653,0c0,1.4831,0,2.886,0,4.2889
		c0,1.6434,0,3.2868,0,4.9302c0,1.1624-0.2004,2.2847-0.7616,3.2868c-0.8417,1.5632-2.1645,2.405-3.8881,2.8058
		c-1.2025,0.2806-2.405,0.2004-3.5273-0.0802c-1.3628-0.3607-2.5653-1.1223-3.3269-2.4451
		c-0.5211-0.8818-0.7616-1.7637-0.7616-2.8058c0.0401-3.3269,0-6.6538,0-10.0608C46.8587,13.8924,47.5802,13.8924,48.422,13.8924z"
		/>
	<path fill="#FFFFFF" d="M95.2777,28.2863c-0.3609-0.6807-0.5569-1.4026-0.8044-2.1246c-1.3202-3.6097-2.6816-7.1783-3.8469-10.8292
		c-0.4744-1.5574-0.557-1.5161-2.3618-1.5161c-0.526,0-0.8044,0.1134-1.0004,0.7219c-0.526,1.5987-1.1242,3.1972-1.6811,4.7649
		c-1.0108,2.7641-2.0524,5.5281-3.0116,8.3025c-0.1547,0.4744-0.8354,1.0004-0.4022,1.4748
		c0.3197,0.3609,1.0417,0.0825,1.6089,0.1238c0.4332,0.0412,0.7632-0.0825,0.8766-0.5569c0.0825-0.2476,0.2063-0.4848,0.2785-0.722
		c0.2475-0.9282,0.5672-1.7636,0.8869-2.6506c0.1238-0.3197,0.2372-0.5157,0.722-0.5157c1.4026,0.0309,2.764,0.0309,4.1667,0
		c0.557,0,0.8457,0.1134,1.0004,0.722c0.2475,1.0726,0.6807,2.0833,1.0004,3.125c0.1238,0.361,0.3197,0.557,0.722,0.557h1.7636
		C95.3602,28.802,95.3602,28.5235,95.2777,28.2863z M90.0694,22.7067h-3.4447c0.7219-2.0008,1.3613-3.847,2.0008-5.6828
		c0.3197,0.3506,0.3609,0.7942,0.5157,1.1963c0.4435,1.2789,0.9282,2.5268,1.3717,3.7645
		C90.7088,22.552,90.6264,22.7067,90.0694,22.7067z"/>
	<path fill="#FFFFFF" d="M68.9846,26.8793c0,0.8017,0,1.4831,0,2.2446c-3.0864,0-6.1327,0-9.2592,0l-0.0401-0.0401
		c-0.0401-0.0401-0.0401-0.0802-0.0401-0.1202c0-4.9703,0-9.9807,0-14.951c0.0401-0.0401,0.0802-0.0802,0.1203-0.0802
		c0.0401-0.0401,0.0802-0.0401,0.1203-0.0401c2.9261,0,5.812,0,8.7782,0c0.2004,0.6413,0.0802,1.3227,0.0802,2.0843
		c-1.6835,0-3.2467,0-4.85,0c-0.3207,0-0.6012,0-0.9219,0c-0.8818,0-0.962,0.0802-0.962,0.962s0,1.7236,0,2.6054
		c0,0.6814,0.1603,0.8417,0.8417,0.8417c1.3628,0,2.6856,0,4.0484,0c0.1603,0,0.3207,0,0.5612,0c0,0.7215,0,1.3227,0,2.0442
		c-1.7636,0-3.5273,0-5.331,0c0,1.4831,0,2.9261,0,4.4492c1.1223,0.0401,2.2847,0,3.4471,0
		C66.6197,26.8793,67.742,26.8793,68.9846,26.8793z"/>
	<path fill="#FFFFFF" d="M81.5305,15.0949c-0.5211,0.6814-0.8417,1.3227-1.4831,1.8037c-0.962-0.6012-2.0042-1.0422-3.1265-1.1624
		c-1.2426-0.1603-2.4451,0.1603-3.4872,0.8417c-1.5232,1.0422-2.4451,2.4451-2.3649,4.369
		c0.0401,0.7616-0.0802,1.5232,0.1603,2.2847c1.1624,3.7277,5.2509,4.85,8.3373,3.0062c0.2004-0.1202,0.3207-0.3207,0.5211-0.4008
		c0.481-0.2405,0.7215,0.1603,0.962,0.4409c0.2806,0.3607,0.8417,0.5612,0.6814,1.1223c-0.0401,0.1603-0.2806,0.3207-0.4409,0.4409
		c-1.0822,0.6012-2.1645,1.0822-3.367,1.3628c-1.7236,0.4008-3.2868,0.1603-4.81-0.5211c-2.3649-1.0422-3.8079-2.8459-4.4091-5.4112
		c-0.5211-2.2847-0.2405-4.4091,1.0422-6.3331c1.4831-2.1645,3.4872-3.4071,6.1728-3.4471c1.2025,0,2.3649,0.1603,3.5273,0.481
		C80.2479,14.2932,80.7289,14.8945,81.5305,15.0949z"/>
	<path fill="#FFFFFF" d="M99.7282,15.8565c0,4.5294,0,8.8583,0,13.2274c-0.7616,0-1.4831,0-2.2447,0l-0.0401-0.0401
		c-0.0401-0.0401-0.0401-0.0802-0.0401-0.1202c0-4.2889,0-8.5778,0-12.9869c-1.7236-0.1202-3.367,0-5.1306-0.0802
		c-0.2405-0.6012,0-1.2827-0.1202-1.8839c0.9219-0.2405,9.4596-0.3207,12.1852-0.1202c0.2004,0.3207,0.0401,0.6814,0.0802,1.0021
		c0.0401,0.2806,0,0.6012,0,0.962C102.8547,15.8565,101.3716,15.8565,99.7282,15.8565z"/>
	<path fill="#FFFFFF" d="M36.9983,13.8523c0.8017,0,1.5232,0,2.3248,0c0,4.329,0,8.6178,0,12.9869c1.3227,0,2.5653,0,3.8079,0
		c0.7215,0,1.4831,0,2.2046,0c0.6012,0,0.7215,0.1603,0.7616,0.7616c0,0.481,0,0.962,0,1.4831c-3.0463,0-6.0124,0-8.9786,0
		C36.8781,27.9615,36.7979,19.5842,36.9983,13.8523z"/>
	<path fill="#FDFEFF" d="M10.0626,22.3499c-1.6835-1.1624-3.2467-2.0843-4.9302-2.8058c-0.8417-0.3607-0.8417-0.3607-0.481-1.1624
		c0.9219-1.8839,2.4451-2.9661,4.4091-3.5273c1.5632-0.4409,3.0463-0.2004,4.4492,0.4008c1.7637,0.7616,2.9261,2.1244,3.6475,3.9281
		c-1.8037,0.7215-3.5273,1.5632-5.1306,2.6856c-0.1603,0.0802-0.3207,0.1202-0.2806,0.3207
		c0.0401,0.2405,0.2806,0.1603,0.4008,0.2004c0.7215,0.3607,1.5632,0.2806,2.3649,0.4409c0.6814,0.1603,1.4029,0.2405,2.1244,0.3207
		c0.6413,0.0401,0.6814,0.1603,0.4409,0.8017c-0.8818,2.0843-2.4451,3.5273-4.6095,4.0083
		c-2.0041,0.4409-4.0484,0.3207-5.812-1.1223c-1.0422-0.8417-1.7637-1.8037-2.3248-2.9661
		c-0.2405-0.5211-0.1603-0.6413,0.4008-0.7215C6.3749,22.9511,8.0985,22.6706,10.0626,22.3499z"/>
</g>
</svg>
